<?xml version="1.0" encoding="utf-8"?>
<!-- Generator: Adobe Illustrator 23.0.1, SVG Export Plug-In . SVG Version: 6.00 Build 0)  -->
<svg version="1.1" id="Слой_1" xmlns="http://www.w3.org/2000/svg" xmlns:xlink="http://www.w3.org/1999/xlink" x="0px" y="0px"
	 viewBox="0 0 841.9 314.1" style="enable-background:new 0 0 841.9 314.1;" xml:space="preserve">
<style type="text/css">
	.st0{fill:#04638C;}
	.st1{fill:#004E7F;}
</style>
<g>
	<path class="st0" d="M384,65.1c1.6,1.1,2.8,2.7,3.6,4.7c0.9,2,1.3,4.3,1.3,6.9c0,3.9-0.9,7-2.7,9.4c-1.8,2.4-4.2,3.6-7.2,3.6h-5
		c-0.2,0-0.3,0.1-0.3,0.3v18c0,0.2-0.1,0.4-0.2,0.5c-0.1,0.2-0.3,0.2-0.5,0.2h-5.3c-0.2,0-0.4-0.1-0.5-0.2c-0.1-0.2-0.2-0.3-0.2-0.5
		V64.2c0-0.2,0.1-0.4,0.2-0.5c0.1-0.2,0.3-0.2,0.5-0.2h10.8C380.6,63.4,382.4,63.9,384,65.1z M380.9,81.9c0.9-1.2,1.3-2.9,1.3-5
		c0-2.2-0.4-3.9-1.3-5.1c-0.9-1.3-2-1.9-3.4-1.9H374c-0.2,0-0.3,0.1-0.3,0.3v13.2c0,0.2,0.1,0.3,0.3,0.3h3.5
		C378.9,83.7,380.1,83.1,380.9,81.9z"/>
	<path class="st0" d="M408.6,108l-4.9-18.5c-0.1-0.2-0.2-0.3-0.3-0.3h-3c-0.2,0-0.3,0.1-0.3,0.3v18.3c0,0.2-0.1,0.4-0.2,0.5
		c-0.1,0.2-0.3,0.2-0.5,0.2h-5.3c-0.2,0-0.4-0.1-0.5-0.2c-0.1-0.2-0.2-0.3-0.2-0.5V64.2c0-0.2,0.1-0.4,0.2-0.5
		c0.1-0.2,0.3-0.2,0.5-0.2h10.8c2,0,3.8,0.5,5.4,1.6s2.8,2.6,3.6,4.6c0.9,2,1.3,4.3,1.3,6.9c0,2.7-0.5,5-1.4,6.9s-2.2,3.4-3.9,4.4
		c-0.2,0-0.2,0.2-0.2,0.4l5.6,19.4c0,0.1,0.1,0.2,0.1,0.3c0,0.4-0.2,0.6-0.6,0.6h-5.5C409,108.7,408.7,108.4,408.6,108z M400.1,70.2
		v12.9c0,0.2,0.1,0.3,0.3,0.3h3.5c1.4,0,2.5-0.6,3.4-1.8c0.9-1.2,1.3-2.8,1.3-4.9s-0.4-3.7-1.3-4.9c-0.9-1.2-2-1.8-3.4-1.8h-3.5
		C400.2,69.9,400.1,70,400.1,70.2z"/>
	<path class="st0" d="M422.3,105.8c-2-2.2-3-5.2-3-8.9V75.2c0-3.7,1-6.7,3-8.9c2-2.2,4.7-3.4,8-3.4s6,1.1,8,3.4c2,2.2,3,5.2,3,8.9
		v21.7c0,3.7-1,6.7-3,8.9c-2,2.2-4.7,3.4-8,3.4C426.9,109.2,424.3,108.1,422.3,105.8z M433.4,101.2c0.8-1,1.2-2.3,1.2-4V74.9
		c0-1.6-0.4-3-1.2-4c-0.8-1-1.9-1.5-3.2-1.5c-1.3,0-2.3,0.5-3.1,1.5c-0.8,1-1.2,2.3-1.2,4v22.3c0,1.6,0.4,3,1.2,4
		c0.8,1,1.8,1.5,3.1,1.5S432.6,102.2,433.4,101.2z"/>
	<path class="st0" d="M466.6,69.7c-0.1,0.2-0.3,0.2-0.5,0.2h-12.4c-0.2,0-0.3,0.1-0.3,0.3v12.2c0,0.2,0.1,0.3,0.3,0.3h7.3
		c0.2,0,0.4,0.1,0.5,0.2c0.1,0.2,0.2,0.3,0.2,0.5v5c0,0.2-0.1,0.4-0.2,0.5c-0.1,0.2-0.3,0.2-0.5,0.2h-7.3c-0.2,0-0.3,0.1-0.3,0.3
		v18.3c0,0.2-0.1,0.4-0.2,0.5c-0.1,0.2-0.3,0.2-0.5,0.2h-5.3c-0.2,0-0.4-0.1-0.5-0.2c-0.1-0.2-0.2-0.3-0.2-0.5V64.2
		c0-0.2,0.1-0.4,0.2-0.5c0.1-0.2,0.3-0.2,0.5-0.2H466c0.2,0,0.4,0.1,0.5,0.2c0.1,0.2,0.2,0.3,0.2,0.5v4.9
		C466.8,69.3,466.7,69.5,466.6,69.7z"/>
	<path class="st0" d="M490.5,69.7c-0.1,0.2-0.3,0.2-0.5,0.2h-12.4c-0.2,0-0.3,0.1-0.3,0.3v12.2c0,0.2,0.1,0.3,0.3,0.3h7.4
		c0.2,0,0.4,0.1,0.5,0.2c0.1,0.2,0.2,0.3,0.2,0.5v5c0,0.2-0.1,0.4-0.2,0.5c-0.1,0.2-0.3,0.2-0.5,0.2h-7.4c-0.2,0-0.3,0.1-0.3,0.3
		v12.3c0,0.2,0.1,0.3,0.3,0.3H490c0.2,0,0.4,0.1,0.5,0.2c0.1,0.2,0.2,0.3,0.2,0.5v4.9c0,0.2-0.1,0.4-0.2,0.5
		c-0.1,0.2-0.3,0.2-0.5,0.2h-18.7c-0.2,0-0.4-0.1-0.5-0.2c-0.1-0.2-0.2-0.3-0.2-0.5V64.2c0-0.2,0.1-0.4,0.2-0.5
		c0.1-0.2,0.3-0.2,0.5-0.2H490c0.2,0,0.4,0.1,0.5,0.2c0.1,0.2,0.2,0.3,0.2,0.5v4.9C490.7,69.3,490.7,69.5,490.5,69.7z"/>
	<path class="st0" d="M497.5,105.9c-2-2.2-2.9-5-2.9-8.5v-1.7c0-0.2,0.1-0.4,0.2-0.5c0.1-0.2,0.3-0.2,0.5-0.2h5.2
		c0.2,0,0.4,0.1,0.5,0.2c0.1,0.2,0.2,0.3,0.2,0.5V97c0,1.7,0.4,3,1.1,4.1c0.7,1,1.7,1.5,2.9,1.5c1.2,0,2.2-0.5,2.9-1.5
		c0.8-1,1.2-2.2,1.2-3.8c0-1.1-0.2-2.1-0.6-2.9s-1-1.6-1.8-2.3c-0.8-0.7-2-1.8-3.7-3.2c-1.9-1.5-3.5-2.9-4.6-4.1
		c-1.2-1.2-2.1-2.7-2.9-4.4c-0.8-1.7-1.2-3.7-1.2-5.9c0-3.6,1-6.4,2.9-8.5s4.4-3.2,7.6-3.2s5.8,1.1,7.7,3.3c2,2.2,2.9,5.2,2.9,8.8
		v1.6c0,0.2-0.1,0.4-0.2,0.5c-0.1,0.2-0.3,0.2-0.5,0.2h-5.2c-0.2,0-0.4-0.1-0.5-0.2c-0.1-0.2-0.2-0.3-0.2-0.5v-1.7
		c0-1.7-0.4-3-1.1-4s-1.7-1.5-3-1.5c-1.2,0-2.1,0.5-2.8,1.4c-0.7,0.9-1.1,2.2-1.1,3.8c0,1.5,0.4,2.9,1.2,3.9
		c0.8,1.1,2.3,2.6,4.6,4.5c2.3,1.9,4.1,3.5,5.3,4.7s2.1,2.6,2.8,4c0.7,1.5,1,3.2,1,5.2c0,3.7-1,6.6-2.9,8.8c-2,2.2-4.5,3.3-7.7,3.3
		C502,109.2,499.4,108.1,497.5,105.9z"/>
	<path class="st0" d="M522.4,105.9c-2-2.2-2.9-5-2.9-8.5v-1.7c0-0.2,0.1-0.4,0.2-0.5c0.1-0.2,0.3-0.2,0.5-0.2h5.2
		c0.2,0,0.4,0.1,0.5,0.2c0.1,0.2,0.2,0.3,0.2,0.5V97c0,1.7,0.4,3,1.1,4.1c0.7,1,1.7,1.5,2.9,1.5s2.2-0.5,2.9-1.5s1.2-2.2,1.2-3.8
		c0-1.1-0.2-2.1-0.6-2.9c-0.4-0.8-1-1.6-1.8-2.3c-0.8-0.7-2-1.8-3.7-3.2c-1.9-1.5-3.5-2.9-4.6-4.1c-1.2-1.2-2.1-2.7-2.9-4.4
		c-0.8-1.7-1.2-3.7-1.2-5.9c0-3.6,1-6.4,2.9-8.5s4.4-3.2,7.6-3.2c3.2,0,5.8,1.1,7.7,3.3c2,2.2,2.9,5.2,2.9,8.8v1.6
		c0,0.2-0.1,0.4-0.2,0.5c-0.1,0.2-0.3,0.2-0.5,0.2h-5.2c-0.2,0-0.4-0.1-0.5-0.2c-0.1-0.2-0.2-0.3-0.2-0.5v-1.7c0-1.7-0.4-3-1.1-4
		c-0.7-1-1.7-1.5-3-1.5c-1.2,0-2.1,0.5-2.8,1.4s-1.1,2.2-1.1,3.8c0,1.5,0.4,2.9,1.2,3.9c0.8,1.1,2.3,2.6,4.6,4.5s4.1,3.5,5.3,4.7
		s2.1,2.6,2.8,4c0.7,1.5,1,3.2,1,5.2c0,3.7-1,6.6-2.9,8.8c-2,2.2-4.5,3.3-7.7,3.3C527,109.2,524.4,108.1,522.4,105.9z"/>
	<path class="st0" d="M545.8,108.4c-0.1-0.2-0.2-0.3-0.2-0.5V64.2c0-0.2,0.1-0.4,0.2-0.5c0.1-0.2,0.3-0.2,0.5-0.2h5.3
		c0.2,0,0.4,0.1,0.5,0.2c0.1,0.2,0.2,0.3,0.2,0.5v43.7c0,0.2-0.1,0.4-0.2,0.5c-0.1,0.2-0.3,0.2-0.5,0.2h-5.3
		C546.1,108.7,545.9,108.6,545.8,108.4z"/>
	<path class="st0" d="M560.8,105.8c-2-2.2-3-5.2-3-8.9V75.2c0-3.7,1-6.7,3-8.9c2-2.2,4.7-3.4,8-3.4s6,1.1,8,3.4c2,2.2,3,5.2,3,8.9
		v21.7c0,3.7-1,6.7-3,8.9c-2,2.2-4.7,3.4-8,3.4S562.8,108.1,560.8,105.8z M571.9,101.2c0.8-1,1.2-2.3,1.2-4V74.9c0-1.6-0.4-3-1.2-4
		s-1.9-1.5-3.2-1.5s-2.3,0.5-3.1,1.5s-1.2,2.3-1.2,4v22.3c0,1.6,0.4,3,1.2,4s1.8,1.5,3.1,1.5C570.1,102.7,571.1,102.2,571.9,101.2z"
		/>
	<path class="st0" d="M601.9,63.7c0.1-0.2,0.3-0.2,0.5-0.2h5.2c0.2,0,0.4,0.1,0.5,0.2c0.1,0.2,0.2,0.3,0.2,0.5v43.7
		c0,0.2-0.1,0.4-0.2,0.5c-0.1,0.2-0.3,0.2-0.5,0.2h-6c-0.4,0-0.6-0.2-0.7-0.6l-8.6-27.4c0-0.1-0.1-0.2-0.2-0.2
		c-0.1,0-0.1,0.1-0.1,0.2l0.1,27.2c0,0.2-0.1,0.4-0.2,0.5c-0.1,0.2-0.3,0.2-0.5,0.2H586c-0.2,0-0.4-0.1-0.5-0.2
		c-0.1-0.2-0.2-0.3-0.2-0.5V64.2c0-0.2,0.1-0.4,0.2-0.5c0.1-0.2,0.3-0.2,0.5-0.2h5.9c0.4,0,0.6,0.2,0.7,0.6l8.6,27.2
		c0,0.1,0.1,0.2,0.2,0.2c0.1,0,0.1-0.1,0.1-0.2v-27C601.7,64,601.7,63.8,601.9,63.7z"/>
	<path class="st0" d="M630.1,107.9l-1.1-6.8c0-0.2-0.1-0.3-0.3-0.3h-8.4c-0.2,0-0.3,0.1-0.3,0.3l-1.1,6.8c0,0.5-0.3,0.7-0.7,0.7H613
		c-0.5,0-0.7-0.3-0.6-0.8l8.5-43.7c0.1-0.5,0.3-0.7,0.7-0.7h6.1c0.4,0,0.7,0.2,0.7,0.7l8.5,43.7v0.3c0,0.4-0.2,0.6-0.6,0.6H631
		C630.4,108.7,630.1,108.4,630.1,107.9z M621.2,95h6.4c0.2,0,0.3-0.1,0.3-0.3l-3.3-20.4c0-0.1-0.1-0.2-0.2-0.2s-0.1,0.1-0.2,0.2
		l-3.3,20.4C620.9,94.9,621,95,621.2,95z"/>
	<path class="st0" d="M640.9,108.4c-0.1-0.2-0.2-0.3-0.2-0.5V64.2c0-0.2,0.1-0.4,0.2-0.5c0.1-0.2,0.3-0.2,0.5-0.2h5.3
		c0.2,0,0.4,0.1,0.5,0.2c0.1,0.2,0.2,0.3,0.2,0.5v37.7c0,0.2,0.1,0.3,0.3,0.3h12.4c0.2,0,0.4,0.1,0.5,0.2c0.1,0.2,0.2,0.3,0.2,0.5
		v4.9c0,0.2-0.1,0.4-0.2,0.5c-0.1,0.2-0.3,0.2-0.5,0.2h-18.7C641.2,108.7,641.1,108.6,640.9,108.4z"/>
	<path class="st0" d="M697.2,63.7c0.1,0.2,0.2,0.3,0.2,0.5v4.9c0,0.2-0.1,0.4-0.2,0.5c-0.1,0.2-0.3,0.2-0.5,0.2h-7.3
		c-0.2,0-0.3,0.1-0.3,0.3v37.7c0,0.2-0.1,0.4-0.2,0.5c-0.1,0.2-0.3,0.2-0.5,0.2h-5.3c-0.2,0-0.4-0.1-0.5-0.2
		c-0.1-0.2-0.2-0.3-0.2-0.5V70.2c0-0.2-0.1-0.3-0.3-0.3h-6.9c-0.2,0-0.4-0.1-0.5-0.2c-0.1-0.2-0.2-0.3-0.2-0.5v-4.9
		c0-0.2,0.1-0.4,0.2-0.5c0.1-0.2,0.3-0.2,0.5-0.2h21.5C696.9,63.4,697.1,63.5,697.2,63.7z"/>
	<path class="st0" d="M714.9,107.9l-1.1-6.8c0-0.2-0.1-0.3-0.3-0.3h-8.4c-0.2,0-0.3,0.1-0.3,0.3l-1.1,6.8c0,0.5-0.3,0.7-0.7,0.7
		h-5.2c-0.5,0-0.7-0.3-0.6-0.8l8.5-43.7c0.1-0.5,0.3-0.7,0.7-0.7h6.1c0.4,0,0.7,0.2,0.7,0.7l8.5,43.7v0.3c0,0.4-0.2,0.6-0.6,0.6
		h-5.3C715.2,108.7,715,108.4,714.9,107.9z M706.1,95h6.4c0.2,0,0.3-0.1,0.3-0.3l-3.3-20.4c0-0.1-0.1-0.2-0.2-0.2s-0.1,0.1-0.2,0.2
		l-3.3,20.4C705.7,94.9,705.8,95,706.1,95z"/>
	<path class="st0" d="M728.8,63.7c0.1,0.2,0.1,0.4,0,0.7L725,76.9c-0.1,0.4-0.4,0.6-0.7,0.6h-4c-0.5,0-0.7-0.3-0.6-0.8l2.4-12.5
		c0.1-0.5,0.3-0.7,0.7-0.7h5.3C728.5,63.4,728.7,63.5,728.8,63.7z"/>
	<path class="st0" d="M732.4,108.4c-0.1-0.2-0.2-0.3-0.2-0.5V64.2c0-0.2,0.1-0.4,0.2-0.5c0.1-0.2,0.3-0.2,0.5-0.2h5.3
		c0.2,0,0.4,0.1,0.5,0.2c0.1,0.2,0.2,0.3,0.2,0.5v37.7c0,0.2,0.1,0.3,0.3,0.3h12.4c0.2,0,0.4,0.1,0.5,0.2c0.1,0.2,0.2,0.3,0.2,0.5
		v4.9c0,0.2-0.1,0.4-0.2,0.5c-0.1,0.2-0.3,0.2-0.5,0.2h-18.7C732.7,108.7,732.5,108.6,732.4,108.4z"/>
	<path class="st0" d="M756.2,108.4c-0.1-0.2-0.2-0.3-0.2-0.5V64.2c0-0.2,0.1-0.4,0.2-0.5c0.1-0.2,0.3-0.2,0.5-0.2h5.3
		c0.2,0,0.4,0.1,0.5,0.2c0.1,0.2,0.2,0.3,0.2,0.5v43.7c0,0.2-0.1,0.4-0.2,0.5c-0.1,0.2-0.3,0.2-0.5,0.2h-5.3
		C756.5,108.7,756.4,108.6,756.2,108.4z"/>
	<path class="st0" d="M787.9,63.4h5.3c0.2,0,0.4,0.1,0.5,0.2c0.1,0.2,0.2,0.3,0.2,0.5v43.7c0,0.2-0.1,0.4-0.2,0.5
		c-0.1,0.2-0.3,0.2-0.5,0.2h-5.3c-0.2,0-0.4-0.1-0.5-0.2c-0.1-0.2-0.2-0.3-0.2-0.5V77.4c0-0.2,0-0.3-0.1-0.3s-0.2,0.1-0.2,0.2
		l-5,10.2c-0.2,0.3-0.4,0.5-0.5,0.5c-0.2,0-0.3-0.2-0.5-0.5l-5-10.2c-0.1-0.1-0.2-0.2-0.2-0.2c-0.1,0-0.1,0.1-0.1,0.3v30.5
		c0,0.2-0.1,0.4-0.2,0.5c-0.1,0.2-0.3,0.2-0.5,0.2h-5.3c-0.2,0-0.4-0.1-0.5-0.2c-0.1-0.2-0.2-0.3-0.2-0.5V64.2
		c0-0.2,0.1-0.4,0.2-0.5c0.1-0.2,0.3-0.2,0.5-0.2h5.3c0.4,0,0.7,0.2,0.9,0.5l5.6,11c0.1,0.2,0.2,0.2,0.3,0l5.5-11
		C787.2,63.6,787.5,63.4,787.9,63.4z"/>
	<path class="st0" d="M816.4,63.7c0.1-0.2,0.3-0.2,0.5-0.2h5.2c0.2,0,0.4,0.1,0.5,0.2c0.1,0.2,0.2,0.3,0.2,0.5v43.7
		c0,0.2-0.1,0.4-0.2,0.5c-0.1,0.2-0.3,0.2-0.5,0.2h-6c-0.4,0-0.6-0.2-0.7-0.6l-8.6-27.4c0-0.1-0.1-0.2-0.2-0.2
		c-0.1,0-0.1,0.1-0.1,0.2l0.1,27.2c0,0.2-0.1,0.4-0.2,0.5c-0.1,0.2-0.3,0.2-0.5,0.2h-5.2c-0.2,0-0.4-0.1-0.5-0.2
		c-0.1-0.2-0.2-0.3-0.2-0.5V64.2c0-0.2,0.1-0.4,0.2-0.5c0.1-0.2,0.3-0.2,0.5-0.2h5.9c0.4,0,0.6,0.2,0.7,0.6l8.6,27.2
		c0,0.1,0.1,0.2,0.2,0.2c0.1,0,0.1-0.1,0.1-0.2v-27C816.2,64,816.3,63.8,816.4,63.7z"/>
	<path class="st0" d="M829.2,108.4c-0.1-0.2-0.2-0.3-0.2-0.5V64.2c0-0.2,0.1-0.4,0.2-0.5c0.1-0.2,0.3-0.2,0.5-0.2h5.3
		c0.2,0,0.4,0.1,0.5,0.2c0.1,0.2,0.2,0.3,0.2,0.5v43.7c0,0.2-0.1,0.4-0.2,0.5c-0.1,0.2-0.3,0.2-0.5,0.2h-5.3
		C829.5,108.7,829.4,108.6,829.2,108.4z"/>
	<path class="st0" d="M382.3,185.5l-4.9-18.5c-0.1-0.2-0.2-0.3-0.3-0.3h-3c-0.2,0-0.3,0.1-0.3,0.3v18.3c0,0.2-0.1,0.4-0.2,0.5
		c-0.1,0.2-0.3,0.2-0.5,0.2h-5.3c-0.2,0-0.4-0.1-0.5-0.2c-0.1-0.2-0.2-0.3-0.2-0.5v-43.7c0-0.2,0.1-0.4,0.2-0.5
		c0.1-0.2,0.3-0.2,0.5-0.2h10.8c2,0,3.8,0.5,5.4,1.6s2.8,2.6,3.6,4.6c0.9,2,1.3,4.3,1.3,6.9c0,2.7-0.5,5-1.4,6.9s-2.2,3.4-3.9,4.4
		c-0.2,0-0.2,0.2-0.2,0.4l5.6,19.4c0,0.1,0.1,0.2,0.1,0.3c0,0.4-0.2,0.6-0.6,0.6H383C382.7,186.2,382.4,185.9,382.3,185.5z
		 M373.8,147.7v12.9c0,0.2,0.1,0.3,0.3,0.3h3.5c1.4,0,2.5-0.6,3.4-1.8s1.3-2.8,1.3-4.9s-0.4-3.7-1.3-4.9s-2-1.8-3.4-1.8h-3.5
		C373.9,147.4,373.8,147.5,373.8,147.7z"/>
	<path class="st0" d="M393.9,185.9c-0.1-0.2-0.2-0.3-0.2-0.5v-43.7c0-0.2,0.1-0.4,0.2-0.5c0.1-0.2,0.3-0.2,0.5-0.2h5.3
		c0.2,0,0.4,0.1,0.5,0.2c0.1,0.2,0.2,0.3,0.2,0.5v43.7c0,0.2-0.1,0.4-0.2,0.5c-0.1,0.2-0.3,0.2-0.5,0.2h-5.3
		C394.2,186.2,394,186.1,393.9,185.9z"/>
	<path class="st0" d="M413.3,185.4l-8.2-43.7l-0.1-0.3c0-0.4,0.2-0.6,0.6-0.6h5.8c0.5,0,0.7,0.2,0.7,0.7l4.8,31.1
		c0,0.1,0.1,0.2,0.2,0.2s0.1-0.1,0.2-0.2l4.7-31.1c0-0.5,0.3-0.7,0.7-0.7h5.6c0.5,0,0.7,0.3,0.6,0.8l-8.3,43.7
		c-0.1,0.5-0.3,0.7-0.7,0.7H414C413.6,186.2,413.3,185.9,413.3,185.4z"/>
	<path class="st0" d="M435.2,183.3c-2-2.2-3-5.2-3-8.9v-21.7c0-3.7,1-6.7,3-8.9s4.7-3.4,8-3.4s6,1.1,8,3.4c2,2.2,3,5.2,3,8.9v21.7
		c0,3.7-1,6.7-3,8.9s-4.7,3.4-8,3.4C439.8,186.7,437.2,185.6,435.2,183.3z M446.3,178.7c0.8-1,1.2-2.3,1.2-4v-22.3
		c0-1.6-0.4-3-1.2-4c-0.8-1-1.9-1.5-3.2-1.5c-1.3,0-2.3,0.5-3.1,1.5c-0.8,1-1.2,2.3-1.2,4v22.3c0,1.6,0.4,3,1.2,4
		c0.8,1,1.8,1.5,3.1,1.5S445.5,179.7,446.3,178.7z"/>
	<path class="st0" d="M460.5,183.5c-2-2.1-2.9-5-2.9-8.5v-4.8c0-0.2,0.1-0.4,0.2-0.5c0.1-0.2,0.3-0.2,0.5-0.2h5.3
		c0.2,0,0.4,0.1,0.5,0.2c0.1,0.2,0.2,0.3,0.2,0.5v4.9c0,1.5,0.4,2.7,1.1,3.7c0.7,0.9,1.7,1.4,2.9,1.4c1.2,0,2.2-0.5,2.9-1.4
		c0.7-0.9,1.1-2.2,1.1-3.7v-33.4c0-0.2,0.1-0.4,0.2-0.5c0.1-0.2,0.3-0.2,0.5-0.2h5.3c0.2,0,0.4,0.1,0.5,0.2c0.1,0.2,0.2,0.3,0.2,0.5
		V175c0,3.5-1,6.4-3,8.5s-4.6,3.2-7.7,3.2C465,186.7,462.4,185.6,460.5,183.5z"/>
	<path class="st0" d="M485.4,185.9c-0.1-0.2-0.2-0.3-0.2-0.5v-43.7c0-0.2,0.1-0.4,0.2-0.5c0.1-0.2,0.3-0.2,0.5-0.2h5.3
		c0.2,0,0.4,0.1,0.5,0.2c0.1,0.2,0.2,0.3,0.2,0.5v37.7c0,0.2,0.1,0.3,0.3,0.3h12.4c0.2,0,0.4,0.1,0.5,0.2c0.1,0.2,0.2,0.3,0.2,0.5
		v4.9c0,0.2-0.1,0.4-0.2,0.5c-0.1,0.2-0.3,0.2-0.5,0.2h-18.7C485.7,186.2,485.5,186.1,485.4,185.9z"/>
	<path class="st0" d="M526.1,185.4l-1.1-6.8c0-0.2-0.1-0.3-0.3-0.3h-8.4c-0.2,0-0.3,0.1-0.3,0.3l-1.1,6.8c0,0.5-0.3,0.7-0.7,0.7H509
		c-0.5,0-0.7-0.3-0.6-0.8l8.5-43.7c0.1-0.5,0.3-0.7,0.7-0.7h6.1c0.4,0,0.7,0.2,0.7,0.7l8.5,43.7v0.3c0,0.4-0.2,0.6-0.6,0.6H527
		C526.4,186.2,526.1,185.9,526.1,185.4z M517.3,172.5h6.4c0.2,0,0.3-0.1,0.3-0.3l-3.3-20.4c0-0.1-0.1-0.2-0.2-0.2
		c-0.1,0-0.1,0.1-0.2,0.2l-3.3,20.4C516.9,172.4,517,172.5,517.3,172.5z"/>
	<path class="st0" d="M553.3,141.2c0.1-0.2,0.3-0.2,0.5-0.2h5.2c0.2,0,0.4,0.1,0.5,0.2c0.1,0.2,0.2,0.3,0.2,0.5v43.7
		c0,0.2-0.1,0.4-0.2,0.5c-0.1,0.2-0.3,0.2-0.5,0.2h-6c-0.4,0-0.6-0.2-0.7-0.6l-8.6-27.4c0-0.1-0.1-0.2-0.2-0.2
		c-0.1,0-0.1,0.1-0.1,0.2l0.1,27.2c0,0.2-0.1,0.4-0.2,0.5c-0.1,0.2-0.3,0.2-0.5,0.2h-5.2c-0.2,0-0.4-0.1-0.5-0.2
		c-0.1-0.2-0.2-0.3-0.2-0.5v-43.7c0-0.2,0.1-0.4,0.2-0.5c0.1-0.2,0.3-0.2,0.5-0.2h5.9c0.4,0,0.6,0.2,0.7,0.6l8.6,27.2
		c0,0.1,0.1,0.2,0.2,0.2c0.1,0,0.1-0.1,0.1-0.2v-27C553.1,141.5,553.1,141.3,553.3,141.2z"/>
	<path class="st0" d="M587,141.2c0.1,0.2,0.2,0.3,0.2,0.5v4.9c0,0.2-0.1,0.4-0.2,0.5c-0.1,0.2-0.3,0.2-0.5,0.2h-7.3
		c-0.2,0-0.3,0.1-0.3,0.3v37.7c0,0.2-0.1,0.4-0.2,0.5c-0.1,0.2-0.3,0.2-0.5,0.2H573c-0.2,0-0.4-0.1-0.5-0.2
		c-0.1-0.2-0.2-0.3-0.2-0.5v-37.7c0-0.2-0.1-0.3-0.3-0.3h-6.9c-0.2,0-0.4-0.1-0.5-0.2c-0.1-0.2-0.2-0.3-0.2-0.5v-4.9
		c0-0.2,0.1-0.4,0.2-0.5c0.1-0.2,0.3-0.2,0.5-0.2h21.5C586.7,140.9,586.9,141,587,141.2z"/>
	<path class="st0" d="M592.1,185.9c-0.1-0.2-0.2-0.3-0.2-0.5v-43.7c0-0.2,0.1-0.4,0.2-0.5c0.1-0.2,0.3-0.2,0.5-0.2h5.3
		c0.2,0,0.4,0.1,0.5,0.2c0.1,0.2,0.2,0.3,0.2,0.5v43.7c0,0.2-0.1,0.4-0.2,0.5c-0.1,0.2-0.3,0.2-0.5,0.2h-5.3
		C592.4,186.2,592.2,186.1,592.1,185.9z"/>
	<path class="st0" d="M620,185.5l-4.9-18.5c-0.1-0.2-0.2-0.3-0.3-0.3h-3c-0.2,0-0.3,0.1-0.3,0.3v18.3c0,0.2-0.1,0.4-0.2,0.5
		c-0.1,0.2-0.3,0.2-0.5,0.2h-5.3c-0.2,0-0.4-0.1-0.5-0.2c-0.1-0.2-0.2-0.3-0.2-0.5v-43.7c0-0.2,0.1-0.4,0.2-0.5
		c0.1-0.2,0.3-0.2,0.5-0.2h10.8c2,0,3.8,0.5,5.4,1.6c1.6,1.1,2.8,2.6,3.6,4.6c0.9,2,1.3,4.3,1.3,6.9c0,2.7-0.5,5-1.4,6.9
		s-2.2,3.4-3.9,4.4c-0.2,0-0.2,0.2-0.2,0.4l5.6,19.4c0,0.1,0.1,0.2,0.1,0.3c0,0.4-0.2,0.6-0.6,0.6h-5.5
		C620.3,186.2,620.1,185.9,620,185.5z M611.5,147.7v12.9c0,0.2,0.1,0.3,0.3,0.3h3.5c1.4,0,2.5-0.6,3.4-1.8s1.3-2.8,1.3-4.9
		s-0.4-3.7-1.3-4.9c-0.9-1.2-2-1.8-3.4-1.8h-3.5C611.6,147.4,611.5,147.5,611.5,147.7z"/>
	<path class="st0" d="M631.5,185.9c-0.1-0.2-0.2-0.3-0.2-0.5v-43.7c0-0.2,0.1-0.4,0.2-0.5c0.1-0.2,0.3-0.2,0.5-0.2h5.3
		c0.2,0,0.4,0.1,0.5,0.2c0.1,0.2,0.2,0.3,0.2,0.5v43.7c0,0.2-0.1,0.4-0.2,0.5c-0.1,0.2-0.3,0.2-0.5,0.2H632
		C631.8,186.2,631.6,186.1,631.5,185.9z"/>
	<path class="st0" d="M646,183.4c-2-2.2-2.9-5-2.9-8.5v-1.7c0-0.2,0.1-0.4,0.2-0.5c0.1-0.2,0.3-0.2,0.5-0.2h5.2
		c0.2,0,0.4,0.1,0.5,0.2c0.1,0.2,0.2,0.3,0.2,0.5v1.3c0,1.7,0.4,3,1.1,4.1c0.7,1,1.7,1.5,2.9,1.5s2.2-0.5,2.9-1.5
		c0.8-1,1.2-2.2,1.2-3.8c0-1.1-0.2-2.1-0.6-2.9c-0.4-0.8-1-1.6-1.8-2.3s-2-1.8-3.7-3.2c-1.9-1.5-3.5-2.9-4.6-4.1
		c-1.2-1.2-2.1-2.7-2.9-4.4c-0.8-1.7-1.2-3.7-1.2-5.9c0-3.6,1-6.4,2.9-8.5s4.4-3.2,7.6-3.2c3.2,0,5.8,1.1,7.7,3.3
		c2,2.2,2.9,5.2,2.9,8.8v1.6c0,0.2-0.1,0.4-0.2,0.5c-0.1,0.2-0.3,0.2-0.5,0.2h-5.2c-0.2,0-0.4-0.1-0.5-0.2c-0.1-0.2-0.2-0.3-0.2-0.5
		v-1.7c0-1.7-0.4-3-1.1-4c-0.7-1-1.7-1.5-3-1.5c-1.2,0-2.1,0.5-2.8,1.4s-1.1,2.2-1.1,3.8c0,1.5,0.4,2.9,1.2,3.9
		c0.8,1.1,2.3,2.6,4.6,4.5s4.1,3.5,5.3,4.7s2.1,2.6,2.8,4c0.7,1.5,1,3.2,1,5.2c0,3.7-1,6.6-2.9,8.8c-2,2.2-4.5,3.3-7.7,3.3
		C650.5,186.7,647.9,185.6,646,183.4z"/>
	<path class="st0" d="M683.9,141.2c0.1-0.2,0.3-0.2,0.5-0.2h5.3c0.2,0,0.4,0.1,0.5,0.2c0.1,0.2,0.2,0.3,0.2,0.5v43.7
		c0,0.2-0.1,0.4-0.2,0.5c-0.1,0.2-0.3,0.2-0.5,0.2h-5.3c-0.2,0-0.4-0.1-0.5-0.2c-0.1-0.2-0.2-0.3-0.2-0.5v-18.3
		c0-0.2-0.1-0.3-0.3-0.3h-7.3c-0.2,0-0.3,0.1-0.3,0.3v18.3c0,0.2-0.1,0.4-0.2,0.5c-0.1,0.2-0.3,0.2-0.5,0.2h-5.3
		c-0.2,0-0.4-0.1-0.5-0.2c-0.1-0.2-0.2-0.3-0.2-0.5v-43.7c0-0.2,0.1-0.4,0.2-0.5c0.1-0.2,0.3-0.2,0.5-0.2h5.3c0.2,0,0.4,0.1,0.5,0.2
		c0.1,0.2,0.2,0.3,0.2,0.5v18.2c0,0.2,0.1,0.3,0.3,0.3h7.3c0.2,0,0.3-0.1,0.3-0.3v-18.2C683.7,141.5,683.8,141.3,683.9,141.2z"/>
	<path class="st0" d="M367.3,263.4c-0.1-0.2-0.2-0.3-0.2-0.5v-43.7c0-0.2,0.1-0.4,0.2-0.5c0.1-0.2,0.3-0.2,0.5-0.2h5.3
		c0.2,0,0.4,0.1,0.5,0.2c0.1,0.2,0.2,0.3,0.2,0.5v43.7c0,0.2-0.1,0.4-0.2,0.5c-0.1,0.2-0.3,0.2-0.5,0.2h-5.3
		C367.6,263.7,367.5,263.6,367.3,263.4z"/>
	<path class="st0" d="M396.6,218.7c0.1-0.2,0.3-0.2,0.5-0.2h5.2c0.2,0,0.4,0.1,0.5,0.2c0.1,0.2,0.2,0.3,0.2,0.5v43.7
		c0,0.2-0.1,0.4-0.2,0.5c-0.1,0.2-0.3,0.2-0.5,0.2h-6c-0.4,0-0.6-0.2-0.7-0.6l-8.6-27.4c0-0.1-0.1-0.2-0.2-0.2s-0.1,0.1-0.1,0.2
		l0.1,27.2c0,0.2-0.1,0.4-0.2,0.5c-0.1,0.2-0.3,0.2-0.5,0.2h-5.2c-0.2,0-0.4-0.1-0.5-0.2c-0.1-0.2-0.2-0.3-0.2-0.5v-43.7
		c0-0.2,0.1-0.4,0.2-0.5c0.1-0.2,0.3-0.2,0.5-0.2h5.9c0.4,0,0.6,0.2,0.7,0.6l8.6,27.2c0,0.1,0.1,0.2,0.2,0.2s0.1-0.1,0.1-0.2v-27
		C396.4,219,396.4,218.8,396.6,218.7z"/>
	<path class="st0" d="M411,260.9c-2-2.2-2.9-5-2.9-8.5v-1.7c0-0.2,0.1-0.4,0.2-0.5c0.1-0.2,0.3-0.2,0.5-0.2h5.2
		c0.2,0,0.4,0.1,0.5,0.2c0.1,0.2,0.2,0.3,0.2,0.5v1.3c0,1.7,0.4,3,1.1,4.1c0.7,1,1.7,1.5,2.9,1.5c1.2,0,2.2-0.5,2.9-1.5
		c0.8-1,1.2-2.2,1.2-3.8c0-1.1-0.2-2.1-0.6-2.9c-0.4-0.8-1-1.6-1.8-2.3s-2-1.8-3.7-3.2c-1.9-1.5-3.5-2.9-4.6-4.1
		c-1.2-1.2-2.1-2.7-2.9-4.4s-1.2-3.7-1.2-5.9c0-3.6,1-6.4,2.9-8.5s4.4-3.2,7.6-3.2s5.8,1.1,7.7,3.3c2,2.2,2.9,5.2,2.9,8.8v1.6
		c0,0.2-0.1,0.4-0.2,0.5c-0.1,0.2-0.3,0.2-0.5,0.2h-5.2c-0.2,0-0.4-0.1-0.5-0.2c-0.1-0.2-0.2-0.3-0.2-0.5v-1.7c0-1.7-0.4-3-1.1-4
		s-1.7-1.5-3-1.5c-1.2,0-2.1,0.5-2.8,1.4c-0.7,0.9-1.1,2.2-1.1,3.8c0,1.5,0.4,2.9,1.2,3.9c0.8,1.1,2.3,2.6,4.6,4.5
		c2.3,1.9,4.1,3.5,5.3,4.7c1.2,1.2,2.1,2.6,2.8,4c0.7,1.5,1,3.2,1,5.2c0,3.7-1,6.6-2.9,8.8c-2,2.2-4.5,3.3-7.7,3.3
		C415.5,264.2,412.9,263.1,411,260.9z"/>
	<path class="st0" d="M454.8,218.7c0.1,0.2,0.2,0.3,0.2,0.5v4.9c0,0.2-0.1,0.4-0.2,0.5c-0.1,0.2-0.3,0.2-0.5,0.2H447
		c-0.2,0-0.3,0.1-0.3,0.3v37.7c0,0.2-0.1,0.4-0.2,0.5c-0.1,0.2-0.3,0.2-0.5,0.2h-5.3c-0.2,0-0.4-0.1-0.5-0.2
		c-0.1-0.2-0.2-0.3-0.2-0.5v-37.7c0-0.2-0.1-0.3-0.3-0.3h-6.9c-0.2,0-0.4-0.1-0.5-0.2c-0.1-0.2-0.2-0.3-0.2-0.5v-4.9
		c0-0.2,0.1-0.4,0.2-0.5c0.1-0.2,0.3-0.2,0.5-0.2h21.5C454.5,218.4,454.6,218.5,454.8,218.7z"/>
	<path class="st0" d="M459.8,263.4c-0.1-0.2-0.2-0.3-0.2-0.5v-43.7c0-0.2,0.1-0.4,0.2-0.5c0.1-0.2,0.3-0.2,0.5-0.2h5.3
		c0.2,0,0.4,0.1,0.5,0.2c0.1,0.2,0.2,0.3,0.2,0.5v43.7c0,0.2-0.1,0.4-0.2,0.5c-0.1,0.2-0.3,0.2-0.5,0.2h-5.3
		C460.1,263.7,460,263.6,459.8,263.4z"/>
	<path class="st0" d="M493.6,218.7c0.1,0.2,0.2,0.3,0.2,0.5v4.9c0,0.2-0.1,0.4-0.2,0.5c-0.1,0.2-0.3,0.2-0.5,0.2h-7.3
		c-0.2,0-0.3,0.1-0.3,0.3v37.7c0,0.2-0.1,0.4-0.2,0.5c-0.1,0.2-0.3,0.2-0.5,0.2h-5.3c-0.2,0-0.4-0.1-0.5-0.2
		c-0.1-0.2-0.2-0.3-0.2-0.5v-37.7c0-0.2-0.1-0.3-0.3-0.3h-6.9c-0.2,0-0.4-0.1-0.5-0.2c-0.1-0.2-0.2-0.3-0.2-0.5v-4.9
		c0-0.2,0.1-0.4,0.2-0.5c0.1-0.2,0.3-0.2,0.5-0.2h21.5C493.3,218.4,493.5,218.5,493.6,218.7z"/>
	<path class="st0" d="M501.2,260.6c-2-2.4-3-5.5-3-9.5v-31.9c0-0.2,0.1-0.4,0.2-0.5c0.1-0.2,0.3-0.2,0.5-0.2h5.3
		c0.2,0,0.4,0.1,0.5,0.2c0.1,0.2,0.2,0.3,0.2,0.5v32.7c0,1.7,0.4,3.1,1.2,4.2c0.8,1.1,1.8,1.6,3,1.6c1.3,0,2.3-0.5,3-1.6
		c0.8-1.1,1.2-2.5,1.2-4.2v-32.7c0-0.2,0.1-0.4,0.2-0.5c0.1-0.2,0.3-0.2,0.5-0.2h5.3c0.2,0,0.4,0.1,0.5,0.2c0.1,0.2,0.2,0.3,0.2,0.5
		v31.9c0,3.9-1,7.1-3,9.5s-4.6,3.6-7.9,3.6C505.8,264.2,503.2,263,501.2,260.6z"/>
	<path class="st0" d="M547.1,218.7c0.1,0.2,0.2,0.3,0.2,0.5v4.9c0,0.2-0.1,0.4-0.2,0.5c-0.1,0.2-0.3,0.2-0.5,0.2h-7.3
		c-0.2,0-0.3,0.1-0.3,0.3v37.7c0,0.2-0.1,0.4-0.2,0.5c-0.1,0.2-0.3,0.2-0.5,0.2H533c-0.2,0-0.4-0.1-0.5-0.2
		c-0.1-0.2-0.2-0.3-0.2-0.5v-37.7c0-0.2-0.1-0.3-0.3-0.3h-6.9c-0.2,0-0.4-0.1-0.5-0.2c-0.1-0.2-0.2-0.3-0.2-0.5v-4.9
		c0-0.2,0.1-0.4,0.2-0.5c0.1-0.2,0.3-0.2,0.5-0.2h21.5C546.8,218.4,547,218.5,547.1,218.7z"/>
	<path class="st0" d="M552.2,263.4c-0.1-0.2-0.2-0.3-0.2-0.5v-43.7c0-0.2,0.1-0.4,0.2-0.5c0.1-0.2,0.3-0.2,0.5-0.2h5.3
		c0.2,0,0.4,0.1,0.5,0.2c0.1,0.2,0.2,0.3,0.2,0.5v43.7c0,0.2-0.1,0.4-0.2,0.5c-0.1,0.2-0.3,0.2-0.5,0.2h-5.3
		C552.5,263.7,552.3,263.6,552.2,263.4z"/>
</g>
<g>
	<g>
		<path class="st0" d="M130.5,246.6c2.3,1.5,4.1,3.6,5.4,6.3c1.3,2.7,1.9,5.8,1.9,9.2c0,5.2-1.4,9.3-4.1,12.5
			c-2.7,3.2-6.3,4.7-10.8,4.7h-7.3c-0.3,0-0.4,0.1-0.4,0.4v24c0,0.3-0.1,0.5-0.3,0.7c-0.2,0.2-0.4,0.3-0.7,0.3h-7.9
			c-0.3,0-0.5-0.1-0.7-0.3c-0.2-0.2-0.3-0.4-0.3-0.7v-58.3c0-0.3,0.1-0.5,0.3-0.7c0.2-0.2,0.4-0.3,0.7-0.3h16.2
			C125.5,244.3,128.2,245.1,130.5,246.6z M126,269c1.3-1.6,1.9-3.9,1.9-6.7c0-2.9-0.6-5.2-1.9-6.8c-1.3-1.7-3-2.5-5.1-2.5h-5.2
			c-0.3,0-0.4,0.1-0.4,0.4v17.7c0,0.3,0.1,0.4,0.4,0.4h5.2C123,271.5,124.7,270.7,126,269z"/>
		<path class="st0" d="M176.4,244.7c0.2,0.2,0.3,0.4,0.3,0.7v6.5c0,0.3-0.1,0.5-0.3,0.7s-0.4,0.3-0.7,0.3h-10.9
			c-0.3,0-0.4,0.1-0.4,0.4v50.2c0,0.3-0.1,0.5-0.3,0.7s-0.4,0.3-0.7,0.3h-7.9c-0.3,0-0.5-0.1-0.7-0.3c-0.2-0.2-0.3-0.4-0.3-0.7
			v-50.2c0-0.3-0.1-0.4-0.4-0.4h-10.3c-0.3,0-0.5-0.1-0.7-0.3s-0.3-0.4-0.3-0.7v-6.5c0-0.3,0.1-0.5,0.3-0.7s0.4-0.3,0.7-0.3h32.1
			C175.9,244.4,176.2,244.5,176.4,244.7z"/>
		<path class="st0" d="M206.4,303.9l-7.3-24.7c-0.1-0.2-0.3-0.3-0.4-0.3h-4.6c-0.3,0-0.4,0.1-0.4,0.4v24.5c0,0.3-0.1,0.5-0.3,0.7
			s-0.4,0.3-0.7,0.3h-7.9c-0.3,0-0.5-0.1-0.7-0.3c-0.2-0.2-0.3-0.4-0.3-0.7v-58.2c0-0.3,0.1-0.5,0.3-0.7s0.4-0.3,0.7-0.3H201
			c3,0,5.7,0.7,8.1,2.2c2.3,1.5,4.1,3.5,5.4,6.2c1.3,2.7,1.9,5.7,1.9,9.2c0,3.6-0.7,6.6-2.1,9.2c-1.4,2.6-3.3,4.5-5.8,5.9
			c-0.2,0.1-0.3,0.2-0.3,0.5l8.4,25.9c0.1,0.1,0.1,0.3,0.1,0.4c0,0.5-0.3,0.8-0.9,0.8h-8.3C206.9,304.7,206.6,304.5,206.4,303.9z
			 M193.6,253.5v17.1c0,0.3,0.1,0.4,0.4,0.4h5.3c2.1,0,3.7-0.8,5-2.4s1.9-3.8,1.9-6.5c0-2.8-0.6-5-1.9-6.6c-1.3-1.6-3-2.5-5-2.5H194
			C193.8,253.1,193.6,253.2,193.6,253.5z"/>
		<path class="st0" d="M223.7,304.4c-0.2-0.2-0.3-0.4-0.3-0.7v-58.2c0-0.3,0.1-0.5,0.3-0.7s0.4-0.3,0.7-0.3h7.9
			c0.3,0,0.5,0.1,0.7,0.3s0.3,0.4,0.3,0.7v58.2c0,0.3-0.1,0.5-0.3,0.7s-0.4,0.3-0.7,0.3h-7.9C224.1,304.7,223.9,304.6,223.7,304.4z"
			/>
	</g>
	<g>
		<path class="st0" d="M98.1,177.1c0.7,0.8,1,1.8,1,3.1s-0.3,2.3-1,3s-1.5,1.2-2.6,1.2h-2c-0.1,0-0.1,0-0.1,0.1v6.2
			c0,0.1-0.1,0.2-0.2,0.2h-1.6c-0.1,0-0.2-0.1-0.2-0.2v-14.6c0-0.1,0.1-0.2,0.2-0.2h3.8C96.6,175.9,97.5,176.3,98.1,177.1z
			 M96.6,182.1c0.4-0.5,0.5-1.1,0.5-1.8c0-0.8-0.2-1.4-0.5-1.9c-0.4-0.5-0.8-0.7-1.4-0.7h-1.6c-0.1,0-0.1,0-0.1,0.1v4.9
			c0,0.1,0,0.1,0.1,0.1h1.6C95.7,182.8,96.2,182.5,96.6,182.1z"/>
		<path class="st0" d="M106,180.1c0.1,0.1,0.1,0.2,0.1,0.3l-0.3,1.6c0,0.1-0.1,0.2-0.3,0.1c-0.2-0.1-0.4-0.1-0.6-0.1
			c-0.1,0-0.2,0-0.4,0c-0.4,0-0.8,0.3-1.1,0.7c-0.3,0.4-0.4,1-0.4,1.6v6.3c0,0.1-0.1,0.2-0.2,0.2h-1.6c-0.1,0-0.2-0.1-0.2-0.2v-10.5
			c0-0.1,0.1-0.2,0.2-0.2h1.6c0.1,0,0.2,0.1,0.2,0.2v1.2v0.1c0,0,0,0,0.1-0.1c0.4-1.1,1.1-1.6,2-1.6
			C105.4,179.9,105.7,180,106,180.1z"/>
		<path class="st0" d="M108.1,190.2c-0.7-0.6-1-1.4-1-2.5v-4.4c0-1,0.3-1.8,1-2.5c0.7-0.6,1.5-0.9,2.6-0.9s2,0.3,2.7,0.9
			c0.7,0.6,1,1.5,1,2.5v4.4c0,1-0.3,1.9-1,2.5s-1.5,0.9-2.7,0.9C109.6,191.1,108.8,190.8,108.1,190.2z M111.9,188.8
			c0.3-0.3,0.5-0.7,0.5-1.3v-4.2c0-0.5-0.2-0.9-0.5-1.3c-0.3-0.3-0.7-0.5-1.1-0.5s-0.8,0.2-1.1,0.5c-0.3,0.3-0.4,0.8-0.4,1.3v4.2
			c0,0.5,0.1,1,0.4,1.3s0.7,0.5,1.1,0.5S111.6,189.1,111.9,188.8z"/>
		<path class="st0" d="M119,179.9C119,180,119,180,119,179.9l1.6,0.1c0.1,0,0.2,0.1,0.2,0.2v1.1c0,0.1-0.1,0.2-0.2,0.2h-1.5
			c-0.1,0-0.1,0-0.1,0.1v9.1c0,0.1-0.1,0.2-0.2,0.2h-1.6c-0.1,0-0.2-0.1-0.2-0.2v-9.1c0-0.1,0-0.1-0.1-0.1h-0.8
			c-0.1,0-0.2-0.1-0.2-0.2v-1.1c0-0.1,0.1-0.2,0.2-0.2h0.8c0.1,0,0.1,0,0.1-0.1v-0.6c0-1.3,0.3-2.2,0.8-2.7c0.5-0.6,1.4-0.8,2.6-0.8
			h0.3c0.1,0,0.2,0.1,0.2,0.2v1.3c0,0.1-0.1,0.2-0.2,0.2h-0.2c-0.5,0-0.8,0.2-1,0.5s-0.3,0.8-0.3,1.4v0.5L119,179.9L119,179.9z"/>
		<path class="st0" d="M129.3,186.3h-4.9c-0.1,0-0.1,0-0.1,0.1v1.2c0,0.5,0.1,0.9,0.4,1.3c0.3,0.3,0.7,0.5,1.1,0.5s0.7-0.1,1-0.4
			c0.3-0.2,0.4-0.6,0.5-0.9c0-0.1,0.1-0.2,0.2-0.2l1.6,0.1c0.1,0,0.1,0,0.2,0.1c0,0,0,0.1,0,0.2c-0.1,0.9-0.5,1.7-1.1,2.2
			c-0.6,0.5-1.4,0.8-2.5,0.8s-2-0.3-2.6-0.9c-0.7-0.6-1-1.4-1-2.5v-4.5c0-1,0.3-1.8,1-2.5c0.7-0.6,1.5-0.9,2.6-0.9s2,0.3,2.6,0.9
			c0.6,0.6,1,1.5,1,2.5V186.3C129.6,186.2,129.5,186.3,129.3,186.3z M124.8,182.1c-0.3,0.3-0.4,0.8-0.4,1.3v1.1c0,0.1,0,0.1,0.1,0.1
			h2.9c0.1,0,0.1,0,0.1-0.1v-1.1c0-0.5-0.1-0.9-0.4-1.3c-0.3-0.3-0.7-0.5-1.1-0.5C125.5,181.6,125.1,181.8,124.8,182.1z"/>
		<path class="st0" d="M132,190.3c-0.6-0.5-0.9-1.2-0.9-2.1V188c0-0.1,0.1-0.2,0.2-0.2h1.5c0.1,0,0.2,0.1,0.2,0.2v0.2
			c0,0.4,0.2,0.7,0.5,1s0.7,0.4,1.1,0.4c0.4,0,0.8-0.1,1-0.4c0.3-0.3,0.4-0.6,0.4-1c0-0.3-0.1-0.6-0.3-0.8s-0.4-0.4-0.7-0.5
			s-0.6-0.3-1.1-0.5c-0.6-0.2-1-0.5-1.4-0.7s-0.7-0.6-1-1s-0.4-1-0.4-1.6c0-1,0.3-1.7,0.9-2.3c0.6-0.5,1.4-0.8,2.5-0.8
			s1.9,0.3,2.5,0.8c0.6,0.6,0.9,1.3,0.9,2.3v0.1c0,0.1-0.1,0.2-0.2,0.2h-1.5c-0.1,0-0.2-0.1-0.2-0.2V183c0-0.4-0.1-0.7-0.4-1
			c-0.3-0.3-0.6-0.4-1.1-0.4c-0.4,0-0.8,0.1-1.1,0.4c-0.3,0.3-0.4,0.6-0.4,1c0,0.3,0.1,0.6,0.3,0.8s0.4,0.4,0.6,0.5
			c0.2,0.1,0.6,0.3,1.2,0.5c0.6,0.3,1.1,0.5,1.5,0.7s0.7,0.6,1,1s0.4,1,0.4,1.6c0,0.9-0.3,1.7-1,2.2c-0.6,0.5-1.5,0.8-2.6,0.8
			C133.5,191.1,132.6,190.8,132,190.3z"/>
		<path class="st0" d="M139.9,190.3c-0.6-0.5-0.9-1.2-0.9-2.1V188c0-0.1,0.1-0.2,0.2-0.2h1.5c0.1,0,0.2,0.1,0.2,0.2v0.2
			c0,0.4,0.2,0.7,0.5,1s0.7,0.4,1.1,0.4c0.4,0,0.8-0.1,1-0.4c0.3-0.3,0.4-0.6,0.4-1c0-0.3-0.1-0.6-0.3-0.8s-0.4-0.4-0.7-0.5
			s-0.6-0.3-1.1-0.5c-0.6-0.2-1-0.5-1.4-0.7s-0.7-0.6-1-1s-0.4-1-0.4-1.6c0-1,0.3-1.7,0.9-2.3c0.6-0.5,1.4-0.8,2.5-0.8
			s1.9,0.3,2.5,0.8c0.6,0.6,0.9,1.3,0.9,2.3v0.1c0,0.1-0.1,0.2-0.2,0.2h-1.5c-0.1,0-0.2-0.1-0.2-0.2V183c0-0.4-0.1-0.7-0.4-1
			c-0.3-0.3-0.6-0.4-1.1-0.4c-0.4,0-0.8,0.1-1.1,0.4c-0.3,0.3-0.4,0.6-0.4,1c0,0.3,0.1,0.6,0.3,0.8s0.4,0.4,0.6,0.5
			c0.2,0.1,0.6,0.3,1.2,0.5c0.6,0.3,1.1,0.5,1.5,0.7s0.7,0.6,1,1s0.4,1,0.4,1.6c0,0.9-0.3,1.7-1,2.2c-0.6,0.5-1.5,0.8-2.6,0.8
			C141.4,191.1,140.5,190.8,139.9,190.3z"/>
		<path class="st0" d="M147.8,177.9c-0.3-0.3-0.4-0.6-0.4-1s0.1-0.7,0.4-1c0.3-0.3,0.6-0.4,1-0.4s0.7,0.1,1,0.4
			c0.3,0.3,0.4,0.6,0.4,1s-0.1,0.7-0.4,1c-0.3,0.3-0.6,0.4-1,0.4C148.4,178.3,148.1,178.2,147.8,177.9z M147.8,190.7v-10.5
			c0-0.1,0.1-0.2,0.2-0.2h1.6c0.1,0,0.2,0.1,0.2,0.2v10.5c0,0.1-0.1,0.2-0.2,0.2H148C147.9,190.9,147.8,190.9,147.8,190.7z"/>
		<path class="st0" d="M153,190.2c-0.7-0.6-1-1.4-1-2.5v-4.4c0-1,0.3-1.8,1-2.5c0.7-0.6,1.5-0.9,2.6-0.9s2,0.3,2.7,0.9
			c0.7,0.6,1,1.5,1,2.5v4.4c0,1-0.3,1.9-1,2.5s-1.5,0.9-2.7,0.9C154.5,191.1,153.6,190.8,153,190.2z M156.8,188.8
			c0.3-0.3,0.5-0.7,0.5-1.3v-4.2c0-0.5-0.2-0.9-0.5-1.3c-0.3-0.3-0.7-0.5-1.1-0.5s-0.8,0.2-1.1,0.5s-0.4,0.8-0.4,1.3v4.2
			c0,0.5,0.1,1,0.4,1.3c0.3,0.3,0.7,0.5,1.1,0.5S156.5,189.1,156.8,188.8z"/>
		<path class="st0" d="M167.7,180.8c0.5,0.6,0.7,1.5,0.7,2.6v7.4c0,0.1-0.1,0.2-0.2,0.2h-1.6c-0.1,0-0.2-0.1-0.2-0.2v-7.2
			c0-0.6-0.1-1.1-0.4-1.4c-0.3-0.3-0.6-0.5-1.1-0.5s-0.8,0.2-1.1,0.5s-0.4,0.8-0.4,1.4c0,0.1,0,0.1,0,0.1v7.1c0,0.1-0.1,0.2-0.2,0.2
			h-1.6c-0.1,0-0.2-0.1-0.2-0.2v-10.5c0-0.1,0.1-0.2,0.2-0.2h1.6c0.1,0,0.2,0.1,0.2,0.2v0.6c0,0,0,0,0,0.1c0,0,0.1,0,0.1-0.1
			c0.5-0.6,1.2-0.9,2.2-0.9C166.6,179.9,167.3,180.2,167.7,180.8z"/>
		<path class="st0" d="M176.7,180.8c0.7,0.7,1,1.5,1,2.6v7.3c0,0.1-0.1,0.2-0.2,0.2h-1.6c-0.1,0-0.2-0.1-0.2-0.2v-0.5c0,0,0,0,0-0.1
			s0,0-0.1,0c-0.5,0.6-1.2,0.9-2.2,0.9c-0.8,0-1.5-0.2-2.2-0.7c-0.6-0.5-0.9-1.3-0.9-2.5s0.4-2.2,1.1-2.7c0.8-0.6,1.7-0.9,3-0.9h1.2
			c0.1,0,0.1,0,0.1-0.1v-0.6c0-0.6-0.1-1.1-0.4-1.4c-0.3-0.4-0.7-0.5-1.1-0.5c-0.4,0-0.7,0.1-0.9,0.4c-0.2,0.2-0.4,0.6-0.4,0.9
			c0,0.1-0.1,0.2-0.2,0.2H171c-0.1,0-0.2-0.1-0.2-0.2c0.1-0.9,0.4-1.7,1.1-2.2c0.7-0.6,1.5-0.9,2.4-0.9
			C175.1,179.8,176,180.2,176.7,180.8z M175,188.8c0.4-0.3,0.6-0.8,0.6-1.3V186c0-0.1,0-0.1-0.1-0.1h-1.3c-0.6,0-1,0.2-1.4,0.5
			c-0.3,0.3-0.5,0.8-0.5,1.3s0.1,0.9,0.4,1.2c0.3,0.3,0.6,0.4,1,0.4C174.2,189.3,174.7,189.1,175,188.8z"/>
		<path class="st0" d="M179.6,190.7v-14.6c0-0.1,0.1-0.2,0.2-0.2h1.6c0.1,0,0.2,0.1,0.2,0.2v14.6c0,0.1-0.1,0.2-0.2,0.2h-1.6
			C179.7,190.9,179.6,190.9,179.6,190.7z"/>
		<path class="st0" d="M192.1,181.5h-1.5c-0.1,0-0.1,0-0.1,0.1v6c0,0.6,0.1,1,0.3,1.2s0.5,0.3,0.9,0.3h0.2c0.1,0,0.2,0.1,0.2,0.2
			v1.4c0,0.1-0.1,0.2-0.2,0.2h-0.7c-0.9,0-1.6-0.2-2.1-0.5c-0.5-0.4-0.7-1-0.7-2v-6.8c0-0.1,0-0.1-0.1-0.1h-0.8
			c-0.1,0-0.2-0.1-0.2-0.2v-1.1c0-0.1,0.1-0.2,0.2-0.2h0.8c0.1,0,0.1,0,0.1-0.1v-2.4c0-0.1,0.1-0.2,0.2-0.2h1.6
			c0.1,0,0.2,0.1,0.2,0.2v2.4c0,0.1,0,0.1,0.1,0.1h1.5c0.1,0,0.2,0.1,0.2,0.2v1.1C192.4,181.4,192.3,181.5,192.1,181.5z"/>
		<path class="st0" d="M200.1,180.8c0.7,0.7,1,1.5,1,2.6v7.3c0,0.1-0.1,0.2-0.2,0.2h-1.6c-0.1,0-0.2-0.1-0.2-0.2v-0.5c0,0,0,0,0-0.1
			s0,0-0.1,0c-0.5,0.6-1.2,0.9-2.2,0.9c-0.8,0-1.5-0.2-2.2-0.7c-0.6-0.5-0.9-1.3-0.9-2.5s0.4-2.2,1.1-2.7c0.8-0.6,1.7-0.9,3-0.9h1.2
			c0.1,0,0.1,0,0.1-0.1v-0.6c0-0.6-0.1-1.1-0.4-1.4c-0.3-0.4-0.7-0.5-1.1-0.5c-0.4,0-0.7,0.1-0.9,0.4c-0.2,0.2-0.4,0.6-0.4,0.9
			c0,0.1-0.1,0.2-0.2,0.2h-1.7c-0.1,0-0.2-0.1-0.2-0.2c0.1-0.9,0.4-1.7,1.1-2.2c0.7-0.6,1.5-0.9,2.4-0.9
			C198.6,179.8,199.4,180.2,200.1,180.8z M198.5,188.8c0.4-0.3,0.6-0.8,0.6-1.3V186c0-0.1,0-0.1-0.1-0.1h-1.3c-0.6,0-1,0.2-1.4,0.5
			c-0.3,0.3-0.5,0.8-0.5,1.3s0.1,0.9,0.4,1.2c0.3,0.3,0.6,0.4,1,0.4C197.7,189.3,198.1,189.1,198.5,188.8z"/>
		<path class="st0" d="M204.7,176.1l-1.3,4.1c0,0.1-0.1,0.2-0.3,0.2h-1.2c-0.1,0-0.1,0-0.2-0.1c0,0,0-0.1,0-0.2l0.9-4.1
			c0-0.1,0.1-0.2,0.2-0.2h1.6C204.7,175.9,204.7,176,204.7,176.1z"/>
		<path class="st0" d="M205.8,190.7v-14.6c0-0.1,0.1-0.2,0.2-0.2h1.6c0.1,0,0.2,0.1,0.2,0.2v14.6c0,0.1-0.1,0.2-0.2,0.2H206
			C205.9,190.9,205.8,190.9,205.8,190.7z"/>
		<path class="st0" d="M210.1,177.9c-0.3-0.3-0.4-0.6-0.4-1s0.1-0.7,0.4-1c0.3-0.3,0.6-0.4,1-0.4s0.7,0.1,1,0.4
			c0.3,0.3,0.4,0.6,0.4,1s-0.1,0.7-0.4,1c-0.3,0.3-0.6,0.4-1,0.4C210.7,178.3,210.4,178.2,210.1,177.9z M210.1,190.7v-10.5
			c0-0.1,0.1-0.2,0.2-0.2h1.6c0.1,0,0.2,0.1,0.2,0.2v10.5c0,0.1-0.1,0.2-0.2,0.2h-1.6C210.2,190.9,210.1,190.9,210.1,190.7z"/>
		<path class="st0" d="M225.8,180.8c0.5,0.6,0.7,1.5,0.7,2.7v7.2c0,0.1-0.1,0.2-0.2,0.2h-1.6c-0.1,0-0.2-0.1-0.2-0.2v-7.1
			c0-0.6-0.1-1.1-0.4-1.5c-0.3-0.4-0.6-0.5-1-0.5c-0.5,0-0.8,0.2-1.1,0.5c-0.3,0.4-0.4,0.8-0.4,1.4v7.1c0,0.1-0.1,0.2-0.2,0.2h-1.6
			c-0.1,0-0.2-0.1-0.2-0.2v-7.1c0-0.6-0.1-1.1-0.4-1.5c-0.3-0.4-0.6-0.5-1-0.5c-0.5,0-0.8,0.2-1.1,0.5c-0.3,0.4-0.4,0.8-0.4,1.4v7.1
			c0,0.1-0.1,0.2-0.2,0.2h-1.6c-0.1,0-0.2-0.1-0.2-0.2V180c0-0.1,0.1-0.2,0.2-0.2h1.6c0.1,0,0.2,0.1,0.2,0.2v0.5v0.1c0,0,0,0,0.1,0
			c0.3-0.3,0.6-0.6,1-0.7c0.4-0.2,0.7-0.2,1.1-0.2c1.1,0,1.9,0.5,2.3,1.4c0,0,0,0,0.1,0c0,0,0,0,0.1-0.1c0.3-0.5,0.7-0.8,1.1-1.1
			c0.4-0.2,0.9-0.3,1.4-0.3C224.6,179.9,225.3,180.2,225.8,180.8z"/>
		<path class="st0" d="M235.1,180.8c0.5,0.6,0.7,1.5,0.7,2.6v7.4c0,0.1-0.1,0.2-0.2,0.2H234c-0.1,0-0.2-0.1-0.2-0.2v-7.2
			c0-0.6-0.1-1.1-0.4-1.4c-0.3-0.3-0.6-0.5-1.1-0.5s-0.8,0.2-1.1,0.5s-0.4,0.8-0.4,1.4c0,0.1,0,0.1,0,0.1v7.1c0,0.1-0.1,0.2-0.2,0.2
			H229c-0.1,0-0.2-0.1-0.2-0.2v-10.5c0-0.1,0.1-0.2,0.2-0.2h1.6c0.1,0,0.2,0.1,0.2,0.2v0.6c0,0,0,0,0,0.1c0,0,0.1,0,0.1-0.1
			c0.5-0.6,1.2-0.9,2.2-0.9C233.9,179.9,234.6,180.2,235.1,180.8z"/>
		<path class="st0" d="M238.1,177.9c-0.3-0.3-0.4-0.6-0.4-1s0.1-0.7,0.4-1c0.3-0.3,0.6-0.4,1-0.4s0.7,0.1,1,0.4
			c0.3,0.3,0.4,0.6,0.4,1s-0.1,0.7-0.4,1c-0.3,0.3-0.6,0.4-1,0.4C238.6,178.3,238.3,178.2,238.1,177.9z M238,190.7v-10.5
			c0-0.1,0.1-0.2,0.2-0.2h1.6c0.1,0,0.2,0.1,0.2,0.2v10.5c0,0.1-0.1,0.2-0.2,0.2h-1.6C238.1,190.9,238,190.9,238,190.7z"/>
		<path class="st0" d="M95.5,205.9c0.1,0.1,0.1,0.2,0.1,0.3l-0.3,1.6c0,0.1-0.1,0.2-0.3,0.1c-0.2-0.1-0.4-0.1-0.6-0.1
			c-0.1,0-0.2,0-0.4,0c-0.4,0-0.8,0.3-1.1,0.7s-0.4,1-0.4,1.6v6.3c0,0.1-0.1,0.2-0.2,0.2h-1.6c-0.1,0-0.2-0.1-0.2-0.2V206
			c0-0.1,0.1-0.2,0.2-0.2h1.6c0.1,0,0.2,0.1,0.2,0.2v1.2v0.1c0,0,0,0,0.1-0.1c0.4-1.1,1.1-1.6,2-1.6C95,205.7,95.3,205.7,95.5,205.9
			z"/>
		<path class="st0" d="M97.1,203.7c-0.3-0.3-0.4-0.6-0.4-1s0.1-0.7,0.4-1s0.6-0.4,1-0.4s0.7,0.1,1,0.4c0.3,0.3,0.4,0.6,0.4,1
			s-0.1,0.7-0.4,1s-0.6,0.4-1,0.4C97.7,204,97.4,203.9,97.1,203.7z M97.1,216.5V206c0-0.1,0.1-0.2,0.2-0.2H99c0.1,0,0.2,0.1,0.2,0.2
			v10.5c0,0.1-0.1,0.2-0.2,0.2h-1.6C97.2,216.7,97.1,216.6,97.1,216.5z"/>
		<path class="st0" d="M103.5,216.5l-2.6-10.5v-0.1c0-0.1,0.1-0.2,0.2-0.2h1.8c0.1,0,0.2,0.1,0.2,0.2l1.5,7.4v0.1c0,0,0,0,0-0.1
			l1.5-7.4c0-0.1,0.1-0.2,0.2-0.2h1.8c0.1,0,0.1,0,0.2,0.1c0,0,0,0.1,0,0.2l-2.6,10.5c0,0.1-0.1,0.2-0.2,0.2h-1.9
			C103.6,216.7,103.6,216.6,103.5,216.5z"/>
		<path class="st0" d="M110.7,215.9c-0.7-0.6-1-1.4-1-2.5V209c0-1,0.3-1.8,1-2.5c0.7-0.6,1.5-0.9,2.6-0.9s2,0.3,2.7,0.9
			c0.7,0.6,1,1.5,1,2.5v4.4c0,1-0.3,1.9-1,2.5s-1.5,0.9-2.7,0.9C112.2,216.9,111.3,216.6,110.7,215.9z M114.5,214.6
			c0.3-0.3,0.5-0.7,0.5-1.3v-4.2c0-0.5-0.2-0.9-0.5-1.3c-0.3-0.3-0.7-0.5-1.1-0.5s-0.8,0.2-1.1,0.5c-0.3,0.3-0.4,0.8-0.4,1.3v4.2
			c0,0.5,0.1,1,0.4,1.3s0.7,0.5,1.1,0.5S114.2,214.9,114.5,214.6z"/>
		<path class="st0" d="M117,220.9v-1.4c0-0.1,0.1-0.2,0.2-0.2c1.2,0,1.7-0.7,1.7-2.1V206c0-0.1,0.1-0.2,0.2-0.2h1.6
			c0.1,0,0.2,0.1,0.2,0.2v11.3c0,0.9-0.1,1.6-0.3,2.1c-0.2,0.5-0.5,1-1.1,1.3c-0.5,0.3-1.3,0.5-2.4,0.5
			C117.1,221.1,117,221.1,117,220.9z M119,203.7c-0.3-0.3-0.4-0.6-0.4-1s0.1-0.7,0.4-1s0.6-0.4,1-0.4s0.8,0.1,1,0.4
			c0.3,0.3,0.4,0.6,0.4,1s-0.1,0.7-0.4,1s-0.6,0.4-1,0.4C119.6,204,119.3,203.9,119,203.7z"/>
		<path class="st0" d="M123.3,216.5v-14.6c0-0.1,0.1-0.2,0.2-0.2h1.6c0.1,0,0.2,0.1,0.2,0.2v14.6c0,0.1-0.1,0.2-0.2,0.2h-1.6
			C123.4,216.7,123.3,216.6,123.3,216.5z"/>
		<path class="st0" d="M133.6,206.6c0.7,0.7,1,1.5,1,2.6v7.3c0,0.1-0.1,0.2-0.2,0.2h-1.6c-0.1,0-0.2-0.1-0.2-0.2V216c0,0,0,0,0-0.1
			c0,0,0,0-0.1,0c-0.5,0.6-1.2,0.9-2.2,0.9c-0.8,0-1.5-0.2-2.2-0.7c-0.6-0.5-0.9-1.3-0.9-2.5s0.4-2.2,1.1-2.7c0.8-0.6,1.7-0.9,3-0.9
			h1.2c0.1,0,0.1,0,0.1-0.1v-0.6c0-0.6-0.1-1.1-0.4-1.4c-0.3-0.4-0.7-0.5-1.1-0.5c-0.4,0-0.7,0.1-0.9,0.4c-0.2,0.2-0.4,0.6-0.4,0.9
			c0,0.1-0.1,0.2-0.2,0.2h-1.7c-0.1,0-0.2-0.1-0.2-0.2c0.1-0.9,0.4-1.7,1.1-2.2c0.7-0.6,1.5-0.9,2.4-0.9
			C132.1,205.6,132.9,205.9,133.6,206.6z M132,214.6c0.4-0.3,0.6-0.8,0.6-1.3v-1.5c0-0.1,0-0.1-0.1-0.1h-1.3c-0.6,0-1,0.2-1.4,0.5
			c-0.3,0.3-0.5,0.8-0.5,1.3s0.1,0.9,0.4,1.2c0.3,0.3,0.6,0.4,1,0.4C131.2,215.1,131.6,214.9,132,214.6z"/>
		<path class="st0" d="M143.1,206.5c0.5,0.6,0.7,1.5,0.7,2.6v7.4c0,0.1-0.1,0.2-0.2,0.2H142c-0.1,0-0.2-0.1-0.2-0.2v-7.2
			c0-0.6-0.1-1.1-0.4-1.4c-0.3-0.3-0.6-0.5-1.1-0.5s-0.8,0.2-1.1,0.5s-0.4,0.8-0.4,1.4c0,0.1,0,0.1,0,0.1v7.1c0,0.1-0.1,0.2-0.2,0.2
			H137c-0.1,0-0.2-0.1-0.2-0.2V206c0-0.1,0.1-0.2,0.2-0.2h1.6c0.1,0,0.2,0.1,0.2,0.2v0.6c0,0,0,0,0,0.1c0,0,0.1,0,0.1-0.1
			c0.5-0.6,1.2-0.9,2.2-0.9C141.9,205.6,142.6,205.9,143.1,206.5z"/>
		<path class="st0" d="M150,207.3h-1.5c-0.1,0-0.1,0-0.1,0.1v6c0,0.6,0.1,1,0.3,1.2s0.5,0.3,0.9,0.3h0.2c0.1,0,0.2,0.1,0.2,0.2v1.4
			c0,0.1-0.1,0.2-0.2,0.2h-0.7c-0.9,0-1.6-0.2-2.1-0.5c-0.5-0.4-0.7-1-0.7-2v-6.8c0-0.1,0-0.1-0.1-0.1h-0.8c-0.1,0-0.2-0.1-0.2-0.2
			V206c0-0.1,0.1-0.2,0.2-0.2h0.8c0.1,0,0.1,0,0.1-0.1v-2.4c0-0.1,0.1-0.2,0.2-0.2h1.6c0.1,0,0.2,0.1,0.2,0.2v2.4
			c0,0.1,0,0.1,0.1,0.1h1.5c0.1,0,0.2,0.1,0.2,0.2v1.1C150.2,207.2,150.1,207.3,150,207.3z"/>
		<path class="st0" d="M152,203.7c-0.3-0.3-0.4-0.6-0.4-1s0.1-0.7,0.4-1c0.3-0.3,0.6-0.4,1-0.4s0.7,0.1,1,0.4c0.3,0.3,0.4,0.6,0.4,1
			s-0.1,0.7-0.4,1c-0.3,0.3-0.6,0.4-1,0.4C152.5,204,152.2,203.9,152,203.7z M151.9,216.5V206c0-0.1,0.1-0.2,0.2-0.2h1.6
			c0.1,0,0.2,0.1,0.2,0.2v10.5c0,0.1-0.1,0.2-0.2,0.2h-1.6C152,216.7,151.9,216.6,151.9,216.5z"/>
		<path class="st0" d="M161.4,205.9c0.1,0.1,0.1,0.2,0.1,0.3l-0.3,1.6c0,0.1-0.1,0.2-0.3,0.1c-0.2-0.1-0.4-0.1-0.6-0.1
			c-0.1,0-0.2,0-0.4,0c-0.4,0-0.8,0.3-1.1,0.7s-0.4,1-0.4,1.6v6.3c0,0.1-0.1,0.2-0.2,0.2h-1.6c-0.1,0-0.2-0.1-0.2-0.2V206
			c0-0.1,0.1-0.2,0.2-0.2h1.6c0.1,0,0.2,0.1,0.2,0.2v1.2v0.1c0,0,0,0,0.1-0.1c0.4-1.1,1.1-1.6,2-1.6
			C160.9,205.7,161.2,205.7,161.4,205.9z"/>
		<path class="st0" d="M163,203.7c-0.3-0.3-0.4-0.6-0.4-1s0.1-0.7,0.4-1c0.3-0.3,0.6-0.4,1-0.4s0.7,0.1,1,0.4c0.3,0.3,0.4,0.6,0.4,1
			s-0.1,0.7-0.4,1c-0.3,0.3-0.6,0.4-1,0.4C163.6,204,163.3,203.9,163,203.7z M163,216.5V206c0-0.1,0.1-0.2,0.2-0.2h1.6
			c0.1,0,0.2,0.1,0.2,0.2v10.5c0,0.1-0.1,0.2-0.2,0.2h-1.6C163.1,216.7,163,216.6,163,216.5z"/>
		<path class="st0" d="M168,216c-0.6-0.5-0.9-1.2-0.9-2.1v-0.2c0-0.1,0.1-0.2,0.2-0.2h1.5c0.1,0,0.2,0.1,0.2,0.2v0.2
			c0,0.4,0.2,0.7,0.5,1s0.7,0.4,1.1,0.4c0.4,0,0.8-0.1,1-0.4c0.3-0.3,0.4-0.6,0.4-1c0-0.3-0.1-0.6-0.3-0.8s-0.4-0.4-0.7-0.5
			s-0.6-0.3-1.1-0.5c-0.6-0.2-1-0.5-1.4-0.7s-0.7-0.6-1-1s-0.4-1-0.4-1.6c0-1,0.3-1.7,0.9-2.3c0.6-0.5,1.4-0.8,2.5-0.8
			s1.9,0.3,2.5,0.8c0.6,0.6,0.9,1.3,0.9,2.3v0.1c0,0.1-0.1,0.2-0.2,0.2h-1.5c-0.1,0-0.2-0.1-0.2-0.2v-0.2c0-0.4-0.1-0.7-0.4-1
			c-0.3-0.3-0.6-0.4-1.1-0.4c-0.4,0-0.8,0.1-1.1,0.4c-0.3,0.3-0.4,0.6-0.4,1c0,0.3,0.1,0.6,0.3,0.8s0.4,0.4,0.6,0.5
			c0.2,0.1,0.6,0.3,1.2,0.5c0.6,0.3,1.1,0.5,1.5,0.7s0.7,0.6,1,1s0.4,1,0.4,1.6c0,0.9-0.3,1.7-1,2.2c-0.6,0.5-1.5,0.8-2.6,0.8
			C169.5,216.8,168.6,216.6,168,216z"/>
		<path class="st0" d="M182.2,206.5c0.5,0.6,0.7,1.5,0.7,2.6v7.4c0,0.1-0.1,0.2-0.2,0.2H181c-0.1,0-0.2-0.1-0.2-0.2v-7.2
			c0-0.6-0.1-1.1-0.4-1.4c-0.3-0.3-0.6-0.5-1.1-0.5s-0.8,0.2-1.1,0.5s-0.4,0.8-0.4,1.4c0,0.1,0,0.1,0,0.1v7.1c0,0.1-0.1,0.2-0.2,0.2
			H176c-0.1,0-0.2-0.1-0.2-0.2v-14.6c0-0.1,0.1-0.2,0.2-0.2h1.6c0.1,0,0.2,0.1,0.2,0.2v4.7c0,0,0,0,0,0.1c0,0,0.1,0,0.1-0.1
			c0.5-0.6,1.2-0.9,2.2-0.9C181,205.6,181.7,205.9,182.2,206.5z"/>
		<path class="st0" d="M189.5,203.7c-0.3-0.3-0.4-0.6-0.4-1s0.1-0.7,0.4-1c0.3-0.3,0.6-0.4,1-0.4s0.7,0.1,1,0.4
			c0.3,0.3,0.4,0.6,0.4,1s-0.1,0.7-0.4,1c-0.3,0.3-0.6,0.4-1,0.4C190,204,189.7,203.9,189.5,203.7z M189.4,216.5V206
			c0-0.1,0.1-0.2,0.2-0.2h1.6c0.1,0,0.2,0.1,0.2,0.2v10.5c0,0.1-0.1,0.2-0.2,0.2h-1.6C189.5,216.7,189.4,216.6,189.4,216.5z"/>
		<path class="st0" d="M200.3,206.5c0.5,0.6,0.7,1.5,0.7,2.6v7.4c0,0.1-0.1,0.2-0.2,0.2h-1.6c-0.1,0-0.2-0.1-0.2-0.2v-7.2
			c0-0.6-0.1-1.1-0.4-1.4c-0.3-0.3-0.6-0.5-1.1-0.5s-0.8,0.2-1.1,0.5s-0.4,0.8-0.4,1.4c0,0.1,0,0.1,0,0.1v7.1c0,0.1-0.1,0.2-0.2,0.2
			h-1.6c-0.1,0-0.2-0.1-0.2-0.2V206c0-0.1,0.1-0.2,0.2-0.2h1.6c0.1,0,0.2,0.1,0.2,0.2v0.6c0,0,0,0,0,0.1c0,0,0.1,0,0.1-0.1
			c0.5-0.6,1.2-0.9,2.2-0.9C199.1,205.6,199.8,205.9,200.3,206.5z"/>
		<path class="st0" d="M203.7,216c-0.6-0.5-0.9-1.2-0.9-2.1v-0.2c0-0.1,0.1-0.2,0.2-0.2h1.5c0.1,0,0.2,0.1,0.2,0.2v0.2
			c0,0.4,0.2,0.7,0.5,1s0.7,0.4,1.1,0.4c0.4,0,0.8-0.1,1-0.4c0.3-0.3,0.4-0.6,0.4-1c0-0.3-0.1-0.6-0.3-0.8s-0.4-0.4-0.7-0.5
			s-0.6-0.3-1.1-0.5c-0.6-0.2-1-0.5-1.4-0.7s-0.7-0.6-1-1s-0.4-1-0.4-1.6c0-1,0.3-1.7,0.9-2.3c0.6-0.5,1.4-0.8,2.5-0.8
			s1.9,0.3,2.5,0.8c0.6,0.6,0.9,1.3,0.9,2.3v0.1c0,0.1-0.1,0.2-0.2,0.2h-1.5c-0.1,0-0.2-0.1-0.2-0.2v-0.2c0-0.4-0.1-0.7-0.4-1
			c-0.3-0.3-0.6-0.4-1.1-0.4c-0.4,0-0.8,0.1-1.1,0.4c-0.3,0.3-0.4,0.6-0.4,1c0,0.3,0.1,0.6,0.3,0.8s0.4,0.4,0.6,0.5
			c0.2,0.1,0.6,0.3,1.2,0.5c0.6,0.3,1.1,0.5,1.5,0.7s0.7,0.6,1,1s0.4,1,0.4,1.6c0,0.9-0.3,1.7-1,2.2c-0.6,0.5-1.5,0.8-2.6,0.8
			C205.2,216.8,204.3,216.6,203.7,216z"/>
		<path class="st0" d="M215.5,207.3H214c-0.1,0-0.1,0-0.1,0.1v6c0,0.6,0.1,1,0.3,1.2s0.5,0.3,0.9,0.3h0.2c0.1,0,0.2,0.1,0.2,0.2v1.4
			c0,0.1-0.1,0.2-0.2,0.2h-0.7c-0.9,0-1.6-0.2-2.1-0.5c-0.5-0.4-0.7-1-0.7-2v-6.8c0-0.1,0-0.1-0.1-0.1H211c-0.1,0-0.2-0.1-0.2-0.2
			V206c0-0.1,0.1-0.2,0.2-0.2h0.8c0.1,0,0.1,0,0.1-0.1v-2.4c0-0.1,0.1-0.2,0.2-0.2h1.6c0.1,0,0.2,0.1,0.2,0.2v2.4
			c0,0.1,0,0.1,0.1,0.1h1.5c0.1,0,0.2,0.1,0.2,0.2v1.1C215.7,207.2,215.6,207.3,215.5,207.3z"/>
		<path class="st0" d="M217.5,203.7c-0.3-0.3-0.4-0.6-0.4-1s0.1-0.7,0.4-1c0.3-0.3,0.6-0.4,1-0.4s0.7,0.1,1,0.4
			c0.3,0.3,0.4,0.6,0.4,1s-0.1,0.7-0.4,1c-0.3,0.3-0.6,0.4-1,0.4C218.1,204,217.7,203.9,217.5,203.7z M217.5,216.5V206
			c0-0.1,0.1-0.2,0.2-0.2h1.6c0.1,0,0.2,0.1,0.2,0.2v10.5c0,0.1-0.1,0.2-0.2,0.2h-1.6C217.5,216.7,217.5,216.6,217.5,216.5z"/>
		<path class="st0" d="M225.9,207.3h-1.5c-0.1,0-0.1,0-0.1,0.1v6c0,0.6,0.1,1,0.3,1.2s0.5,0.3,0.9,0.3h0.2c0.1,0,0.2,0.1,0.2,0.2
			v1.4c0,0.1-0.1,0.2-0.2,0.2H225c-0.9,0-1.6-0.2-2.1-0.5c-0.5-0.4-0.7-1-0.7-2v-6.8c0-0.1,0-0.1-0.1-0.1h-0.8
			c-0.1,0-0.2-0.1-0.2-0.2V206c0-0.1,0.1-0.2,0.2-0.2h0.8c0.1,0,0.1,0,0.1-0.1v-2.4c0-0.1,0.1-0.2,0.2-0.2h1.6
			c0.1,0,0.2,0.1,0.2,0.2v2.4c0,0.1,0,0.1,0.1,0.1h1.5c0.1,0,0.2,0.1,0.2,0.2v1.1C226.2,207.2,226.1,207.3,225.9,207.3z"/>
		<path class="st0" d="M233,205.8h1.6c0.1,0,0.2,0.1,0.2,0.2v10.5c0,0.1-0.1,0.2-0.2,0.2H233c-0.1,0-0.2-0.1-0.2-0.2v-0.6v-0.1
			c0,0,0,0-0.1,0c-0.4,0.7-1.1,1-2.1,1c-0.9,0-1.6-0.3-2.1-0.8s-0.8-1.3-0.8-2.4V206c0-0.1,0.1-0.2,0.2-0.2h1.6
			c0.1,0,0.2,0.1,0.2,0.2v7.2c0,1.2,0.5,1.8,1.5,1.8c0.5,0,0.9-0.2,1.1-0.5c0.3-0.4,0.4-0.8,0.4-1.4V206
			C232.7,205.8,232.8,205.8,233,205.8z"/>
		<path class="st0" d="M241.1,207.3h-1.5c-0.1,0-0.1,0-0.1,0.1v6c0,0.6,0.1,1,0.3,1.2s0.5,0.3,0.9,0.3h0.2c0.1,0,0.2,0.1,0.2,0.2
			v1.4c0,0.1-0.1,0.2-0.2,0.2h-0.7c-0.9,0-1.6-0.2-2.1-0.5c-0.5-0.4-0.7-1-0.7-2v-6.8c0-0.1,0-0.1-0.1-0.1h-0.8
			c-0.1,0-0.2-0.1-0.2-0.2V206c0-0.1,0.1-0.2,0.2-0.2h0.8c0.1,0,0.1,0,0.1-0.1v-2.4c0-0.1,0.1-0.2,0.2-0.2h1.6
			c0.1,0,0.2,0.1,0.2,0.2v2.4c0,0.1,0,0.1,0.1,0.1h1.5c0.1,0,0.2,0.1,0.2,0.2v1.1C241.3,207.2,241.3,207.3,241.1,207.3z"/>
		<path class="st0" d="M243.1,203.7c-0.3-0.3-0.4-0.6-0.4-1s0.1-0.7,0.4-1c0.3-0.3,0.6-0.4,1-0.4s0.7,0.1,1,0.4
			c0.3,0.3,0.4,0.6,0.4,1s-0.1,0.7-0.4,1c-0.3,0.3-0.6,0.4-1,0.4C243.7,204,243.4,203.9,243.1,203.7z M243.1,216.5V206
			c0-0.1,0.1-0.2,0.2-0.2h1.6c0.1,0,0.2,0.1,0.2,0.2v10.5c0,0.1-0.1,0.2-0.2,0.2h-1.6C243.2,216.7,243.1,216.6,243.1,216.5z"/>
	</g>
	<g>
		<path class="st1" d="M300.8,170.8c0-1.7,0-3.5-0.1-5.2c-0.1-1.8,1.1-3.3,2.8-3.8l23.2-6c2.1-0.5,3.4-2.6,3.1-4.8l-3-17.1
			c-0.4-2.1-2.3-3.6-4.5-3.4l-23.9,2.3c-1.8,0.2-3.4-0.9-3.9-2.6c-1.1-3.3-2.2-6.5-3.5-9.7c-0.7-1.6-0.1-3.5,1.3-4.5l19.8-13.6
			c1.8-1.2,2.3-3.6,1.3-5.5l-8.7-15c-1.1-1.9-3.4-2.6-5.4-1.7l-21.7,10.3c-1.6,0.8-3.5,0.3-4.6-1.1c-2.1-2.7-4.3-5.3-6.6-7.9
			c-1.2-1.3-1.3-3.3-0.3-4.7L280,57.2c1.3-1.8,1-4.2-0.7-5.6L266,40.4c-1.7-1.4-4.1-1.3-5.7,0.3l-16.8,17.1
			c-1.2,1.3-3.2,1.5-4.7,0.5c-2.9-1.8-5.9-3.5-8.9-5.1c-1.6-0.8-2.4-2.6-1.9-4.3l6.4-23.1c0.6-2.1-0.6-4.3-2.6-5l-16.3-5.9
			c-2-0.7-4.3,0.2-5.2,2.2l-10,21.8c-0.7,1.6-2.5,2.5-4.2,2.1c-3.3-0.7-6.7-1.3-10.1-1.8c-1.8-0.2-3.1-1.6-3.3-3.4l-1.9-23.9
			c-0.2-2.2-2-3.9-4.2-3.9h-17.4c-2.2,0-4,1.7-4.2,3.9l-1.9,23.9c-0.1,1.8-1.5,3.2-3.3,3.4c-3.4,0.5-6.8,1.1-10.1,1.8
			c-1.7,0.4-3.5-0.5-4.2-2.1l-10-21.8c-0.9-2-3.2-2.9-5.2-2.2L104,20.7c-2,0.7-3.2,2.9-2.6,5l6.4,23.1c0.5,1.7-0.3,3.5-1.9,4.3
			c-3,1.6-6,3.3-8.9,5.1c-1.5,0.9-3.4,0.7-4.7-0.5l-16.8-17c-1.5-1.6-4-1.7-5.7-0.3L56.5,51.6c-1.7,1.4-2,3.9-0.7,5.6l13.9,19.6
			c1,1.4,0.9,3.4-0.3,4.7c-2.3,2.5-4.5,5.2-6.6,7.9c-1.1,1.4-3,1.9-4.6,1.1L36.5,80.1c-2-0.9-4.3-0.2-5.4,1.7l-8.7,15
			c-1.1,1.9-0.5,4.3,1.3,5.5L43.4,116c1.5,1,2,2.9,1.3,4.5c-1.3,3.2-2.5,6.4-3.5,9.7c-0.5,1.7-2.2,2.8-3.9,2.6l-23.9-2.3
			c-2.2-0.2-4.1,1.3-4.5,3.4l-3,17.1c-0.4,2.1,1,4.2,3.1,4.8l23.2,6c1.7,0.4,2.9,2,2.8,3.8c-0.1,1.7-0.1,3.5-0.1,5.2s0,3.5,0.1,5.2
			c0.1,1.8-1.1,3.3-2.8,3.8l-23.2,6c-2.1,0.5-3.4,2.6-3.1,4.8l3,17.1c0.4,2.1,2.3,3.6,4.5,3.4l23.9-2.3c1.8-0.2,3.4,0.9,3.9,2.6
			c1.1,3.3,2.2,6.5,3.5,9.7c0.7,1.6,0.1,3.5-1.3,4.5l-19.8,13.6c-1.8,1.2-2.3,3.6-1.3,5.5l8.7,15c1.1,1.9,3.4,2.6,5.4,1.7l21.7-10.3
			c1.6-0.8,3.5-0.3,4.6,1.1c2.1,2.7,4.3,5.3,6.6,7.9c1.2,1.3,1.3,3.3,0.3,4.7l-13.9,19.6c-1.3,1.8-1,4.2,0.7,5.6l15.8,13.2l27-66.3
			C81.5,218.5,71.1,193,72.8,165c2.9-48.6,42.8-87.6,91.4-89.5c54.3-2.1,99,41.4,99,95.2c0,25.7-10.2,49-26.7,66.1l27,66.3
			l15.8-13.2c1.7-1.4,2-3.9,0.7-5.6l-14-19.5c-1-1.4-0.9-3.4,0.3-4.7c2.3-2.5,4.5-5.2,6.6-7.9c1.1-1.4,3-1.9,4.6-1.1l21.7,10.3
			c2,0.9,4.3,0.2,5.4-1.7l8.7-15c1.1-1.9,0.5-4.3-1.3-5.5l-19.8-13.6c-1.5-1-2-2.9-1.3-4.5c1.3-3.2,2.5-6.4,3.5-9.7
			c0.5-1.7,2.2-2.8,3.9-2.6l23.9,2.3c2.2,0.2,4.1-1.3,4.5-3.4l3-17.1c0.4-2.1-1-4.2-3.1-4.8l-23.2-6c-1.7-0.4-2.9-2-2.8-3.8
			C300.8,174.3,300.8,172.5,300.8,170.8z"/>
	</g>
	<g>
		<path class="st1" d="M103,161.2c15.7-4.6,44-21.3,64.8,6.1c0,0,13.9-11.8,28.3-11.7c14.1,0.1,35.7,11.8,59.7,8.5
			c-0.1-0.8-0.1-1.5-0.2-2.3c-4.4,0.2-18,0.5-30.4-3.4c-15.1-4.7-38.4-14.3-57,6.5c0,0-15.3-34.1-67.4-8.2l-16.7-14
			c-2.3,6.8-3.8,13.9-4.3,21.4C84.9,164.2,93.4,164,103,161.2z"/>
	</g>
	<g>
		<path class="st1" d="M139,136.7c10.8,1,20.3,7.3,29.3,24.4c0,0,11.1-19.3,27.5-17.1c16.1,2.1,42.2,17.8,59.5,14.4
			c-0.1-0.8-0.2-1.5-0.4-2.3c-3.4,0.2-13.4,0.4-20.1-2.1c-8.3-3.1-24.1-15-38.6-14.6c-17.7,0.6-27.8,16.8-27.8,16.8
			s-16.3-38.1-46.4-23.1l-19-22.3c-6.9,7.5-12.6,16.2-16.6,25.7c2.9,2.1,9.7,6,19.4,5.7C119.2,141.8,128.2,135.8,139,136.7z"/>
	</g>
	<g>
		<path class="st1" d="M168.7,151.1c0,0,8.9-20,27.9-21c20.1-1.1,30.2,24.8,57.7,22.2c-8.5-39.9-43.9-69.8-86.4-69.8
			c-22,0-42.1,8.1-57.6,21.4C124,100.1,155,98.3,168.7,151.1z"/>
	</g>
	<g>
		<path class="st1" d="M256.1,168.4h-82.6c-0.5,1.3-2.9,2.2-5.7,2.2s-5.1-0.9-5.7-2.2H79.6c0,0.8-0.1,1.6-0.1,2.4
			c0,0.8,0,1.6,0.1,2.3h176.5c0-0.8,0.1-1.6,0.1-2.3C256.2,170,256.1,169.2,256.1,168.4z"/>
	</g>
</g>
</svg>
